<svg xmlns="http://www.w3.org/2000/svg" style="display:none">
<symbol id="icon-search" viewBox="0 0 24 24"><path fill="none" stroke="currentColor" stroke-width="2" stroke-linecap="round" d="M21 21l-4.35-4.35M11 19a8 8 0 1 1 0-16 8 8 0 0 1 0 16z"/></symbol>
<symbol id="icon-bell" viewBox="0 0 24 24"><path fill="none" stroke="currentColor" stroke-width="2" stroke-linecap="round" d="M18 8A6 6 0 0 0 6 8c0 7-3 9-3 9h18s-3-2-3-9M13.73 21a2 2 0 0 1-3.46 0"/></symbol>
<symbol id="icon-settings" viewBox="0 0 24 24"><circle cx="12" cy="12" r="3" fill="none" stroke="currentColor" stroke-width="2"/><path fill="none" stroke="currentColor" stroke-width="2" d="M19.4 15a1.65 1.65 0 0 0 .33 1.82l.06.06a2 2 0 1 1-2.83 2.83l-.06-.06a1.65 1.65 0 0 0-1.82-.33 1.65 1.65 0 0 0-1 1.51V21a2 2 0 0 1-4 0v-.09A1.65 1.65 0 0 0 9 19.4a1.65 1.65 0 0 0-1.82.33l-.06.06a2 2 0 1 1-2.83-2.83l.06-.06A1.65 1.65 0 0 0 4.6 15a1.65 1.65 0 0 0-1.51-1H3a2 2 0 0 1 0-4h.09A1.65 1.65 0 0 0 4.6 9a1.65 1.65 0 0 0-.33-1.82l-.06-.06a2 2 0 1 1 2.83-2.83l.06.06A1.65 1.65 0 0 0 9 4.6a1.65 1.65 0 0 0 1-1.51V3a2 2 0 0 1 4 0v.09a1.65 1.65 0 0 0 1 1.51 1.65 1.65 0 0 0 1.82-.33l.06-.06a2 2 0 1 1 2.83 2.83l-.06.06A1.65 1.65 0 0 0 19.4 9a1.65 1.65 0 0 0 1.51 1H21a2 2 0 0 1 0 4h-.09a1.65 1.65 0 0 0-1.51 1z"/></symbol>
<symbol id="icon-logout" viewBox="0 0 24 24"><path fill="none" stroke="currentColor" stroke-width="2" stroke-linecap="round" d="M9 21H5a2 2 0 0 1-2-2V5a2 2 0 0 1 2-2h4M16 17l5-5-5-5M21 12H9"/></symbol>
<symbol id="icon-folder" viewBox="0 0 24 24"><path fill="none" stroke="currentColor" stroke-width="2" stroke-linecap="round" d="M22 19a2 2 0 0 1-2 2H4a2 2 0 0 1-2-2V5a2 2 0 0 1 2-2h5l2 3h9a2 2 0 0 1 2 2z"/></symbol>
<symbol id="icon-file" viewBox="0 0 24 24"><path fill="none" stroke="currentColor" stroke-width="2" stroke-linecap="round" d="M14 2H6a2 2 0 0 0-2 2v16a2 2 0 0 0 2 2h12a2 2 0 0 0 2-2V8z"/><polyline fill="none" stroke="currentColor" stroke-width="2" stroke-linecap="round" points="14 2 14 8 20 8"/></symbol>
<symbol id="icon-message" viewBox="0 0 24 24"><path fill="none" stroke="currentColor" stroke-width="2" stroke-linecap="round" d="M21 15a2 2 0 0 1-2 2H7l-4 4V5a2 2 0 0 1 2-2h14a2 2 0 0 1 2 2z"/></symbol>
<symbol id="icon-plus" viewBox="0 0 24 24"><path fill="none" stroke="currentColor" stroke-width="2" stroke-linecap="round" d="M12 5v14M5 12h14"/></symbol>
<symbol id="icon-close" viewBox="0 0 24 24"><path fill="none" stroke="currentColor" stroke-width="2" stroke-linecap="round" d="M18 6L6 18M6 6l12 12"/></symbol>
<symbol id="icon-send" viewBox="0 0 24 24"><path fill="none" stroke="currentColor" stroke-width="2" stroke-linecap="round" d="M22 2L11 13M22 2l-7 20-4-9-9-4 20-7z"/></symbol>
<symbol id="icon-paperclip" viewBox="0 0 24 24"><path fill="none" stroke="currentColor" stroke-width="2" stroke-linecap="round" d="M21.44 11.05l-9.19 9.19a6 6 0 0 1-8.49-8.49l9.19-9.19a4 4 0 0 1 5.66 5.66l-9.2 9.19a2 2 0 0 1-2.83-2.83l8.49-8.48"/></symbol>
<symbol id="icon-brain" viewBox="0 0 24 24"><path fill="none" stroke="currentColor" stroke-width="2" stroke-linecap="round" d="M12 2a7 7 0 0 1 7 7c0 2.38-1.19 4.47-3 5.74V17a2 2 0 0 1-2 2H10a2 2 0 0 1-2-2v-2.26A6.98 6.98 0 0 1 5 9a7 7 0 0 1 7-7zM9 21h6"/></symbol>
<symbol id="icon-agent" viewBox="0 0 24 24"><path fill="none" stroke="currentColor" stroke-width="2" stroke-linecap="round" d="M12 2l3.09 6.26L22 9.27l-5 4.87 1.18 6.88L12 17.77l-6.18 3.25L7 14.14 2 9.27l6.91-1.01L12 2z"/></symbol>
<symbol id="icon-lightbulb" viewBox="0 0 24 24"><path fill="none" stroke="currentColor" stroke-width="2" stroke-linecap="round" d="M9 18h6M10 22h4M12 2a7 7 0 0 0-7 7c0 2.38 1.19 4.47 3 5.74V17a2 2 0 0 0 2 2h4a2 2 0 0 0 2-2v-2.26A6.98 6.98 0 0 0 19 9a7 7 0 0 0-7-7z"/></symbol>
<symbol id="icon-shield" viewBox="0 0 24 24"><path fill="none" stroke="currentColor" stroke-width="2" stroke-linecap="round" d="M12 22s8-4 8-10V5l-8-3-8 3v7c0 6 8 10 8 10z"/></symbol>
<symbol id="icon-clock" viewBox="0 0 24 24"><circle cx="12" cy="12" r="10" fill="none" stroke="currentColor" stroke-width="2"/><polyline fill="none" stroke="currentColor" stroke-width="2" stroke-linecap="round" points="12 6 12 12 16 14"/></symbol>
<symbol id="icon-user" viewBox="0 0 24 24"><path fill="none" stroke="currentColor" stroke-width="2" stroke-linecap="round" d="M20 21v-2a4 4 0 0 0-4-4H8a4 4 0 0 0-4 4v2"/><circle cx="12" cy="7" r="4" fill="none" stroke="currentColor" stroke-width="2"/></symbol>
<symbol id="icon-users" viewBox="0 0 24 24"><path fill="none" stroke="currentColor" stroke-width="2" stroke-linecap="round" d="M17 21v-2a4 4 0 0 0-4-4H5a4 4 0 0 0-4 4v2"/><circle cx="9" cy="7" r="4" fill="none" stroke="currentColor" stroke-width="2"/><path fill="none" stroke="currentColor" stroke-width="2" stroke-linecap="round" d="M23 21v-2a4 4 0 0 0-3-3.87M16 3.13a4 4 0 0 1 0 7.75"/></symbol>
<symbol id="icon-chart" viewBox="0 0 24 24"><path fill="none" stroke="currentColor" stroke-width="2" stroke-linecap="round" d="M18 20V10M12 20V4M6 20v-6"/></symbol>
<symbol id="icon-edit" viewBox="0 0 24 24"><path fill="none" stroke="currentColor" stroke-width="2" stroke-linecap="round" d="M11 4H4a2 2 0 0 0-2 2v14a2 2 0 0 0 2 2h14a2 2 0 0 0 2-2v-7"/><path fill="none" stroke="currentColor" stroke-width="2" stroke-linecap="round" d="M18.5 2.5a2.121 2.121 0 0 1 3 3L12 15l-4 1 1-4 9.5-9.5z"/></symbol>
<symbol id="icon-chevron-down" viewBox="0 0 24 24"><path fill="none" stroke="currentColor" stroke-width="2" stroke-linecap="round" d="M6 9l6 6 6-6"/></symbol>
<symbol id="icon-pin" viewBox="0 0 24 24"><path fill="none" stroke="currentColor" stroke-width="2" stroke-linecap="round" d="M12 2l3.09 6.26L22 9.27l-5 4.87 1.18 6.88L12 17.77l-6.18 3.25L7 14.14 2 9.27l6.91-1.01L12 2z"/></symbol>
<symbol id="icon-split" viewBox="0 0 24 24"><rect x="2" y="3" width="20" height="18" rx="2" ry="2" fill="none" stroke="currentColor" stroke-width="2"/><line x1="12" y1="3" x2="12" y2="21" fill="none" stroke="currentColor" stroke-width="2"/></symbol>
<symbol id="icon-more" viewBox="0 0 24 24"><circle cx="12" cy="12" r="1" fill="currentColor"/><circle cx="19" cy="12" r="1" fill="currentColor"/><circle cx="5" cy="12" r="1" fill="currentColor"/></symbol>
<symbol id="icon-sparkles" viewBox="0 0 24 24"><path fill="none" stroke="currentColor" stroke-width="2" stroke-linecap="round" d="M12 3L14.5 8.5L20 11L14.5 13.5L12 19L9.5 13.5L4 11L9.5 8.5L12 3Z"/></symbol>
<symbol id="icon-check" viewBox="0 0 24 24"><polyline fill="none" stroke="currentColor" stroke-width="2" stroke-linecap="round" points="20 6 9 17 4 12"/></symbol>
<symbol id="icon-refresh" viewBox="0 0 24 24"><polyline fill="none" stroke="currentColor" stroke-width="2" stroke-linecap="round" points="23 4 23 10 17 10"/><path fill="none" stroke="currentColor" stroke-width="2" stroke-linecap="round" d="M20.49 15a9 9 0 1 1 2.12-9.36L23 10"/></symbol>
<symbol id="icon-upload" viewBox="0 0 24 24"><path fill="none" stroke="currentColor" stroke-width="2" stroke-linecap="round" d="M21 15v4a2 2 0 0 1-2 2H5a2 2 0 0 1-2-2v-4"/><polyline fill="none" stroke="currentColor" stroke-width="2" stroke-linecap="round" points="17 8 12 3 7 8"/><line x1="12" y1="3" x2="12" y2="15" fill="none" stroke="currentColor" stroke-width="2"/></symbol>
<symbol id="icon-archive" viewBox="0 0 24 24"><polyline fill="none" stroke="currentColor" stroke-width="2" stroke-linecap="round" points="21 8 21 21 3 21 3 8"/><rect x="1" y="3" width="22" height="5" fill="none" stroke="currentColor" stroke-width="2" stroke-linecap="round"/><line x1="10" y1="12" x2="14" y2="12" fill="none" stroke="currentColor" stroke-width="2"/></symbol>
<symbol id="icon-zap" viewBox="0 0 24 24"><polygon fill="none" stroke="currentColor" stroke-width="2" stroke-linecap="round" points="13 2 3 14 12 14 11 22 21 10 12 10 13 2"/></symbol>
<symbol id="icon-trash" viewBox="0 0 24 24"><polyline fill="none" stroke="currentColor" stroke-width="2" stroke-linecap="round" points="3 6 5 6 21 6"/><path fill="none" stroke="currentColor" stroke-width="2" stroke-linecap="round" d="M19 6v14a2 2 0 0 1-2 2H7a2 2 0 0 1-2-2V6m3 0V4a2 2 0 0 1 2-2h4a2 2 0 0 1 2 2v2"/></symbol>
<symbol id="icon-monitor" viewBox="0 0 24 24"><rect x="2" y="3" width="20" height="14" rx="2" ry="2" fill="none" stroke="currentColor" stroke-width="2"/><line x1="8" y1="21" x2="16" y2="21" fill="none" stroke="currentColor" stroke-width="2"/><line x1="12" y1="17" x2="12" y2="21" fill="none" stroke="currentColor" stroke-width="2"/></symbol>
<symbol id="icon-hash" viewBox="0 0 24 24"><line x1="4" y1="9" x2="20" y2="9" fill="none" stroke="currentColor" stroke-width="2"/><line x1="4" y1="15" x2="20" y2="15" fill="none" stroke="currentColor" stroke-width="2"/><line x1="10" y1="3" x2="8" y2="21" fill="none" stroke="currentColor" stroke-width="2"/><line x1="16" y1="3" x2="14" y2="21" fill="none" stroke="currentColor" stroke-width="2"/></symbol>
<symbol id="icon-globe" viewBox="0 0 24 24"><circle cx="12" cy="12" r="10" fill="none" stroke="currentColor" stroke-width="2"/><line x1="2" y1="12" x2="22" y2="12" fill="none" stroke="currentColor" stroke-width="2"/><path fill="none" stroke="currentColor" stroke-width="2" d="M12 2a15.3 15.3 0 0 1 4 10 15.3 15.3 0 0 1-4 10 15.3 15.3 0 0 1-4-10 15.3 15.3 0 0 1 4-10z"/></symbol>
<symbol id="icon-command" viewBox="0 0 24 24"><path fill="none" stroke="currentColor" stroke-width="2" stroke-linecap="round" d="M18 3a3 3 0 0 0-3 3v12a3 3 0 0 0 3 3 3 3 0 0 0 3-3 3 3 0 0 0-3-3H6a3 3 0 0 0-3 3 3 3 0 0 0 3 3 3 3 0 0 0 3-3V6a3 3 0 0 0-3-3 3 3 0 0 0-3 3 3 3 0 0 0 3 3h12a3 3 0 0 0 3-3 3 3 0 0 0-3-3z"/></symbol>
<symbol id="icon-inbox" viewBox="0 0 24 24"><polyline fill="none" stroke="currentColor" stroke-width="2" stroke-linecap="round" points="22 12 16 12 14 15 10 15 8 12 2 12"/><path fill="none" stroke="currentColor" stroke-width="2" stroke-linecap="round" d="M5.45 5.11L2 12v6a2 2 0 0 0 2 2h16a2 2 0 0 0 2-2v-6l-3.45-6.89A2 2 0 0 0 16.76 4H7.24a2 2 0 0 0-1.79 1.11z"/></symbol>
<symbol id="icon-arrow-left" viewBox="0 0 24 24"><path fill="none" stroke="currentColor" stroke-width="2" stroke-linecap="round" d="M19 12H5M12 19l-7-7 7-7"/></symbol>
<symbol id="icon-arrow-right" viewBox="0 0 24 24"><path fill="none" stroke="currentColor" stroke-width="2" stroke-linecap="round" d="M5 12h14M12 5l7 7-7 7"/></symbol>
<symbol id="icon-loader" viewBox="0 0 24 24"><line x1="12" y1="2" x2="12" y2="6" fill="none" stroke="currentColor" stroke-width="2"/><line x1="12" y1="18" x2="12" y2="22" fill="none" stroke="currentColor" stroke-width="2"/><line x1="4.93" y1="4.93" x2="7.76" y2="7.76" fill="none" stroke="currentColor" stroke-width="2"/><line x1="16.24" y1="16.24" x2="19.07" y2="19.07" fill="none" stroke="currentColor" stroke-width="2"/><line x1="2" y1="12" x2="6" y2="12" fill="none" stroke="currentColor" stroke-width="2"/><line x1="18" y1="12" x2="22" y2="12" fill="none" stroke="currentColor" stroke-width="2"/><line x1="4.93" y1="19.07" x2="7.76" y2="16.24" fill="none" stroke="currentColor" stroke-width="2"/><line x1="16.24" y1="7.76" x2="19.07" y2="4.93" fill="none" stroke="currentColor" stroke-width="2"/></symbol>
<symbol id="icon-circle" viewBox="0 0 24 24"><circle cx="12" cy="12" r="10" fill="none" stroke="currentColor" stroke-width="2"/></symbol>
<symbol id="icon-check-circle" viewBox="0 0 24 24"><path fill="none" stroke="currentColor" stroke-width="2" stroke-linecap="round" d="M22 11.08V12a10 10 0 1 1-5.93-9.14"/><polyline fill="none" stroke="currentColor" stroke-width="2" stroke-linecap="round" points="22 4 12 14.01 9 11.01"/></symbol>
<symbol id="icon-alert-circle" viewBox="0 0 24 24"><circle cx="12" cy="12" r="10" fill="none" stroke="currentColor" stroke-width="2"/><line x1="12" y1="8" x2="12" y2="12" fill="none" stroke="currentColor" stroke-width="2"/><line x1="12" y1="16" x2="12.01" y2="16" fill="none" stroke="currentColor" stroke-width="2"/></symbol>
<symbol id="icon-x-circle" viewBox="0 0 24 24"><circle cx="12" cy="12" r="10" fill="none" stroke="currentColor" stroke-width="2"/><line x1="15" y1="9" x2="9" y2="15" fill="none" stroke="currentColor" stroke-width="2"/><line x1="9" y1="9" x2="15" y2="15" fill="none" stroke="currentColor" stroke-width="2"/></symbol>
<symbol id="icon-pause-circle" viewBox="0 0 24 24"><circle cx="12" cy="12" r="10" fill="none" stroke="currentColor" stroke-width="2"/><line x1="10" y1="15" x2="10" y2="9" fill="none" stroke="currentColor" stroke-width="2"/><line x1="14" y1="15" x2="14" y2="9" fill="none" stroke="currentColor" stroke-width="2"/></symbol>
<symbol id="icon-help-circle" viewBox="0 0 24 24"><circle cx="12" cy="12" r="10" fill="none" stroke="currentColor" stroke-width="2"/><path fill="none" stroke="currentColor" stroke-width="2" stroke-linecap="round" d="M9.09 9a3 3 0 0 1 5.83 1c0 2-3 3-3 3"/><line x1="12" y1="17" x2="12.01" y2="17" fill="none" stroke="currentColor" stroke-width="2"/></symbol>
<symbol id="icon-maximize" viewBox="0 0 24 24"><path fill="none" stroke="currentColor" stroke-width="2" stroke-linecap="round" d="M15 3h6v6M9 21H3v-6M21 3l-7 7M3 21l7-7"/></symbol>
<symbol id="icon-minimize" viewBox="0 0 24 24"><path fill="none" stroke="currentColor" stroke-width="2" stroke-linecap="round" d="M4 14h6v6M20 10h-6V4M14 10l7-7M10 14l-7 7"/></symbol>
</svg>